<svg xmlns="http://www.w3.org/2000/svg" width="514.468" height="142" viewBox="0 0 514.468 142">
  <g id="Grupo_259" data-name="Grupo 259" transform="translate(-312.532 -444)">
    <g id="Grupo_255" data-name="Grupo 255" transform="translate(-22 17)">
      <text id="Registro_Único_de_Aspirantes_a_la_Adopción_RUA_" data-name="Registro Único 
de Aspirantes a 
la Adopción (RUA)" transform="translate(455 468)" fill="#545871" font-size="42" font-family="Montserrat-SemiBold, Montserrat" font-weight="600"><tspan x="0" y="0">Registro Único </tspan><tspan x="0" y="45">de Aspirantes a </tspan><tspan x="0" y="90">la Adopción (RUA)</tspan></text>
    </g>
    <g id="Grupo_258" data-name="Grupo 258" transform="translate(-47.96 -356.321)">
      <path id="Trazado_245" data-name="Trazado 245" d="M379.307,849.334l13.011,12.219s3.817,2.96,6.777-.857.389-6.388.389-6.388l-13.321-13.088" transform="translate(10.892 20.181)" fill="none" stroke="#dbabba" stroke-linecap="round" stroke-linejoin="round" stroke-width="4"/>
      <path id="Trazado_246" data-name="Trazado 246" d="M391.543,849.427l8.181,7.869a5.673,5.673,0,0,0,7.323.472c4.238-3.7-1.253-9.03-1.253-9.03" transform="translate(18.833 25.06)" fill="none" stroke="#dbabba" stroke-linecap="round" stroke-linejoin="round" stroke-width="4"/>
      <path id="Trazado_247" data-name="Trazado 247" d="M414.07,851l16.365-16.983s2.61-4.324-1.792-8.725-10.049,1.324-10.049,1.324l-14.831,15.22" transform="translate(26.764 8.764)" fill="none" stroke="#dbabba" stroke-linecap="round" stroke-linejoin="round" stroke-width="4"/>
      <path id="Trazado_248" data-name="Trazado 248" d="M397.937,833.507l10.1-10.183s4.713-3.545,8.647.389a7.014,7.014,0,0,1,1.164,8.491" transform="translate(22.983 7.615)" fill="none" stroke="#dbabba" stroke-linecap="round" stroke-linejoin="round" stroke-width="4"/>
      <path id="Trazado_249" data-name="Trazado 249" d="M413.959,856.924l12.506-12.349s3.545-4.947-.467-8.959-8.946-1-8.946-1" transform="translate(33.381 15.189)" fill="none" stroke="#dbabba" stroke-linecap="round" stroke-linejoin="round" stroke-width="4"/>
      <path id="Trazado_250" data-name="Trazado 250" d="M411.663,846.558l22.9,22.321s3.8,1.928,6.66-.935-.584-7.363-.584-7.363L405.7,826.109,423,832.341s5.3,2.571,7.012-2.025-2.493-7.012-2.493-7.012L390.2,810.45s-15.23-3.156-24.112,10.166,1.636,25.942,1.636,25.942L377.753,856.8" transform="translate(0 0)" fill="none" stroke="#dbabba" stroke-linecap="round" stroke-linejoin="round" stroke-width="4"/>
      <path id="Trazado_251" data-name="Trazado 251" d="M384.041,892.939c16.671-9.505,8.727-20.568,5.453-25.086s-1.247-11.686-1.247-11.686l6.233-16.2s1.558-7.168-4.987-9.038a6.9,6.9,0,0,0-8.725,3.9L369.706,865.2s-18.7,32.1,5.3,48.613,42.381-6.233,42.381-6.233l39.03-38.641s5.064-5.686,0-9.894-8.881-.544-8.881-.544l-23.76,23.76" transform="translate(0.159 13.258)" fill="none" stroke="#dbabba" stroke-linecap="round" stroke-linejoin="round" stroke-width="4"/>
      <path id="Trazado_252" data-name="Trazado 252" d="M387.716,836.637l26.41,25.63s4.715,4.79,8.453,1.052.818-6.583.818-6.583l-6.187-6.045" transform="translate(16.35 17.207)" fill="none" stroke="#dbabba" stroke-linecap="round" stroke-linejoin="round" stroke-width="4"/>
    </g>
  </g>
</svg>
